<?xml version="1.0" standalone="no"?>
<!DOCTYPE svg PUBLIC "-//W3C//DTD SVG 20010904//EN"
 "http://www.w3.org/TR/2001/REC-SVG-20010904/DTD/svg10.dtd">
<svg version="1.0" xmlns="http://www.w3.org/2000/svg"
 width="516.000000pt" height="516.000000pt" viewBox="0 0 516.000000 516.000000"
 preserveAspectRatio="xMidYMid meet">
<metadata>
Created by potrace 1.11, written by Peter Selinger 2001-2013
</metadata>
<g transform="translate(0.000000,516.000000) scale(0.100000,-0.100000)"
fill="#000000" stroke="none">
<path d="M2497 4523 c-6 -5 -76 -12 -177 -16 -19 -1 -41 -9 -48 -17 -10 -11
-12 -12 -6 -1 6 11 3 13 -12 6 -10 -4 -27 -7 -36 -7 -10 0 -18 -3 -18 -8 0 -5
-6 -7 -14 -4 -26 10 -295 -71 -395 -120 -29 -14 -57 -23 -62 -21 -4 3 -9 2
-11 -3 -5 -11 -108 -64 -108 -55 0 5 -4 3 -8 -2 -10 -14 -65 -50 -74 -48 -3 2
-12 -4 -18 -12 -7 -8 -18 -15 -25 -15 -7 0 -16 -7 -19 -16 -3 -8 -10 -12 -16
-9 -5 3 -10 2 -10 -4 0 -5 -9 -13 -20 -16 -11 -3 -27 -13 -35 -22 -9 -8 -43
-35 -77 -60 -66 -49 -70 -52 -175 -153 -40 -38 -73 -71 -73 -74 0 -4 -15 -21
-33 -39 -43 -41 -101 -114 -162 -202 -27 -38 -52 -72 -55 -75 -3 -3 -6 -12 -8
-20 -2 -8 -8 -16 -13 -18 -5 -2 -9 -10 -9 -18 0 -8 -5 -14 -11 -14 -5 0 -8 -4
-5 -9 3 -5 -1 -14 -9 -21 -8 -6 -19 -27 -25 -46 -6 -19 -16 -34 -21 -34 -5 0
-8 -3 -7 -7 1 -5 -13 -39 -31 -78 -27 -58 -49 -118 -106 -293 -3 -7 -5 -14 -6
-17 0 -2 -7 -28 -15 -57 -8 -29 -17 -64 -19 -78 -34 -194 -37 -226 -38 -400 0
-145 7 -252 18 -270 3 -6 1 -10 -6 -10 -8 0 -8 -4 -1 -12 5 -7 13 -35 16 -63
3 -27 11 -68 16 -90 6 -22 13 -51 16 -65 2 -14 9 -36 13 -50 8 -20 51 -159 56
-180 1 -3 8 -21 17 -41 9 -20 19 -47 23 -60 4 -13 14 -31 21 -40 8 -9 17 -26
19 -39 2 -13 11 -30 20 -40 8 -9 12 -20 8 -23 -3 -4 -1 -7 6 -7 7 0 9 -4 6
-10 -3 -5 -3 -10 2 -10 4 0 15 -14 22 -32 16 -35 148 -237 166 -253 6 -5 29
-32 51 -60 88 -112 278 -289 394 -370 30 -21 57 -41 60 -45 3 -4 21 -16 40
-27 19 -10 54 -31 77 -46 24 -15 47 -27 51 -27 5 0 21 -9 35 -20 15 -12 29
-21 31 -21 7 0 65 -24 131 -54 28 -12 68 -28 90 -35 22 -7 48 -16 57 -21 10
-5 26 -9 35 -9 10 0 37 -7 60 -15 23 -8 56 -17 74 -20 18 -3 35 -7 38 -9 3 -2
31 -7 61 -11 30 -4 59 -9 63 -12 11 -6 41 -9 202 -18 148 -8 138 -8 145 -6 3
1 40 4 84 6 81 3 166 12 207 21 13 2 42 7 64 10 22 3 61 12 88 19 26 8 47 12
47 10 0 -3 17 1 38 9 20 8 70 24 111 36 40 12 94 32 120 43 25 12 48 22 51 22
3 1 26 11 52 23 26 12 52 22 57 22 6 0 11 5 11 12 0 6 3 9 6 5 3 -3 15 3 27
14 11 10 29 19 39 19 10 0 18 4 18 9 0 5 14 14 30 21 17 7 30 16 30 21 0 5 5
9 11 9 13 0 94 57 167 118 28 24 52 41 52 37 0 -3 11 5 24 17 13 13 21 27 18
32 -3 5 0 6 5 3 6 -4 34 18 62 48 28 29 51 51 51 49 0 -3 10 6 23 21 12 15 29
35 37 44 8 9 33 39 55 66 22 28 46 56 53 63 6 7 12 20 12 28 0 8 5 12 10 9 6
-3 10 1 10 10 0 8 7 18 15 21 8 4 15 10 15 15 0 12 42 73 53 77 4 2 7 9 7 16
0 7 9 23 20 36 11 13 20 29 20 37 0 7 5 13 11 13 5 0 8 4 5 9 -4 5 -2 11 2 13
11 4 62 98 62 114 0 8 4 14 10 14 5 0 7 7 4 15 -4 8 -2 15 4 15 6 0 13 13 17
30 4 16 11 30 17 30 6 0 8 3 5 7 -4 3 -2 12 4 20 6 7 8 13 4 13 -4 0 -3 6 2
13 6 6 18 37 28 67 10 30 23 61 29 69 9 12 8 13 -3 7 -9 -6 -8 -1 3 16 9 14
13 27 10 30 -3 4 -1 15 5 26 5 10 12 35 14 53 2 19 6 40 11 47 4 6 9 31 11 54
2 24 4 43 5 43 3 0 10 44 16 105 8 87 11 430 3 430 -4 0 -7 21 -8 48 -1 44
-30 212 -41 242 -1 3 -3 10 -5 15 -1 6 -3 12 -4 15 -3 6 -8 29 -13 55 -2 11
-7 26 -11 33 -5 6 -5 12 -1 12 3 0 1 7 -6 15 -7 8 -9 15 -5 15 4 0 1 8 -6 17
-12 15 -12 16 1 8 11 -6 10 -3 -2 12 -10 11 -18 25 -18 32 0 12 -21 67 -41
103 -5 10 -9 25 -9 33 0 8 -3 15 -7 15 -10 0 -33 49 -33 67 0 8 -7 16 -15 19
-8 4 -12 11 -9 16 4 6 3 13 -2 17 -5 3 -20 26 -33 51 -14 25 -29 48 -35 52 -6
4 -8 8 -3 8 7 0 -19 47 -33 60 -3 3 -16 22 -30 42 -14 21 -29 38 -33 38 -5 0
-5 5 -2 10 3 6 2 10 -3 10 -5 0 -17 15 -27 34 -11 19 -23 33 -27 30 -4 -3 -8
0 -8 5 0 6 -15 26 -34 46 -19 19 -32 35 -30 35 6 0 -109 114 -118 118 -4 2
-25 20 -47 40 -51 49 -81 73 -81 66 0 -3 -11 6 -24 20 -13 15 -28 26 -34 26
-6 0 -17 6 -24 13 -27 26 -188 127 -203 127 -8 0 -15 5 -15 10 0 6 -6 10 -14
10 -7 0 -19 7 -26 15 -7 8 -16 12 -21 9 -5 -3 -9 0 -9 7 0 7 -3 10 -6 6 -3 -3
-29 6 -57 20 -28 15 -57 26 -64 26 -7 0 -13 4 -13 8 0 5 -19 13 -42 20 -24 6
-48 15 -54 20 -6 5 -19 10 -30 12 -10 2 -26 7 -34 10 -48 19 -162 47 -170 42
-6 -3 -10 -2 -10 2 0 5 -10 10 -22 11 -13 0 -45 6 -73 12 -62 13 -118 19 -215
25 -41 2 -90 6 -108 8 -18 2 -35 0 -38 -5 -3 -4 -13 -4 -22 1 -9 5 -26 5 -37
1 -11 -4 -27 -4 -36 1 -9 5 -19 6 -22 2z"/>
</g>
</svg>
